<svg width="28" height="28" viewBox="0 0 24 24" fill="none" xmlns="http://www.w3.org/2000/svg">
  <!-- Craft Beers - Beer mug (tankard) with handle and foam -->
  <!-- Main body (rectangular mug shape) -->
  <path d="M7.5 8.8h7c0.9 0 1.6 0.7 1.6 1.6v6.5c0 0.9-0.7 1.6-1.6 1.6h-7c-0.9 0-1.6-0.7-1.6-1.6v-6.5c0-0.9 0.7-1.6 1.6-1.6z" stroke="#000000" stroke-width="2.5" stroke-linecap="round" stroke-linejoin="round"/>
  <!-- Handle on right side (curved handle) -->
  <path d="M16.5 10.8v3.2c0 0.5 0.4 0.9 0.9 0.9h1c0.5 0 0.9-0.4 0.9-0.9v-3.2c0-0.5-0.4-0.9-0.9-0.9h-1c-0.5 0-0.9 0.4-0.9 0.9z" stroke="#000000" stroke-width="2.5" stroke-linecap="round" stroke-linejoin="round"/>
  <!-- Foam head (wavy line representing beer foam at top) -->
  <path d="M7.5 9.8c0.5 0 1 0.1 1.4 0.3c0.4 0.2 0.9 0.3 1.4 0.3s1-0.1 1.4-0.3c0.4-0.2 0.9-0.3 1.4-0.3" stroke="#000000" stroke-width="2.5" stroke-linecap="round"/>
</svg>
